<svg xmlns="http://www.w3.org/2000/svg" xmlns:xlink="http://www.w3.org/1999/xlink" width="500" zoomAndPan="magnify" viewBox="0 0 375 374.999991" height="500" preserveAspectRatio="xMidYMid meet" version="1.0"><defs><clipPath id="b0bfb4e472"><path d="M 26 0 L 349.976562 0 L 349.976562 375 L 26 375 Z M 26 0 " clip-rule="nonzero"/></clipPath></defs><g clip-path="url(#b0bfb4e472)"><path fill="#ffffff" d="M 140.191406 265.835938 L 160.167969 265.835938 L 160.167969 375 L 103.273438 318.144531 L 103.273438 230.207031 L 123.25 230.207031 L 123.25 309.550781 L 140.191406 326.484375 Z M 123.25 193.3125 L 123.25 102.847656 L 242.09375 102.847656 L 259.035156 119.777344 L 140.191406 119.777344 L 140.191406 179.414062 L 160.167969 179.414062 L 160.167969 139.742188 L 307.332031 139.742188 L 250.183594 82.882812 L 103.019531 82.882812 L 103.019531 213.273438 L 198.855469 213.273438 L 215.796875 230.207031 L 139.9375 230.207031 L 139.9375 249.914062 L 263.839844 249.914062 L 207.199219 193.3125 Z M 187.730469 0 C 98.46875 0 26.152344 72.269531 26.152344 161.472656 C 26.152344 214.792969 51.941406 262.046875 91.894531 291.609375 L 91.894531 277.964844 C 58.265625 250.421875 36.773438 208.472656 36.773438 161.472656 C 36.773438 78.335938 104.285156 10.867188 187.476562 10.867188 C 270.667969 10.867188 338.433594 78.335938 338.433594 161.472656 C 338.433594 244.609375 270.917969 312.332031 187.476562 312.332031 C 181.914062 312.332031 176.351562 312.078125 171.039062 311.320312 L 171.039062 322.1875 C 176.351562 322.691406 181.914062 322.945312 187.476562 322.945312 C 276.734375 322.945312 349.054688 250.675781 349.054688 161.472656 C 349.054688 72.269531 276.988281 0 187.730469 0 Z M 187.730469 0 " fill-opacity="1" fill-rule="nonzero"/></g></svg>